<?xml version="1.0" ?><!DOCTYPE svg  PUBLIC '-//W3C//DTD SVG 1.1//EN'  'http://www.w3.org/Graphics/SVG/1.1/DTD/svg11.dtd'><svg enable-background="new 0 0 24 24" height="24px" id="Layer_1" version="1.1" viewBox="0 0 24 24" width="24px" xml:space="preserve" xmlns="http://www.w3.org/2000/svg" xmlns:xlink="http://www.w3.org/1999/xlink"><g><g><path d="M19.7,23.5H4.3c-2.1,0-3.8-1.7-3.8-3.8V4.3c0-2.1,1.7-3.8,3.8-3.8h15.3c2.1,0,3.8,1.7,3.8,3.8v15.3    C23.5,21.8,21.8,23.5,19.7,23.5z M4.3,1.5c-1.6,0-2.8,1.3-2.8,2.8v15.3c0,1.6,1.3,2.8,2.8,2.8h15.3c1.6,0,2.8-1.3,2.8-2.8V4.3    c0-1.6-1.3-2.8-2.8-2.8H4.3z"/></g><g><g><path d="M19.6,10.3h-5.1c-0.3,0-0.5-0.2-0.5-0.5V7.3c0-0.3,0.2-0.5,0.5-0.5h5.1c0.3,0,0.5,0.2,0.5,0.5v2.5     C20.1,10.1,19.9,10.3,19.6,10.3z M15,9.3h4.1V7.8H15V9.3z"/></g><g><path d="M9.5,17.2H6.9c-0.3,0-0.5-0.2-0.5-0.5v-6.4h-2c-0.3,0-0.5-0.2-0.5-0.5V7.3c0-0.3,0.2-0.5,0.5-0.5H12     c0.3,0,0.5,0.2,0.5,0.5v2.5c0,0.3-0.2,0.5-0.5,0.5h-2v6.4C10,17,9.7,17.2,9.5,17.2z M7.4,16.2H9V9.8c0-0.3,0.2-0.5,0.5-0.5h2V7.8     H4.9v1.5h2c0.3,0,0.5,0.2,0.5,0.5V16.2z"/></g><g><path d="M19.6,17.2H12c-0.3,0-0.5-0.2-0.5-0.5V9.8c0-0.3,0.2-0.5,0.5-0.5h2.5c0.3,0,0.5,0.2,0.5,0.5v3.9h4.6     c0.3,0,0.5,0.2,0.5,0.5v2.6C20.1,17,19.9,17.2,19.6,17.2z M12.5,16.2h6.6v-1.6h-4.6c-0.3,0-0.5-0.2-0.5-0.5v-3.9h-1.5V16.2z"/></g></g></g></svg>